<svg xmlns="http://www.w3.org/2000/svg" width="107" height="18"><g color="#000"><path d="M15 1v14H2v2h15V1h-2zm10 0v8h2V1h-2zm26 0v14H37v2h16V1h-2zm18 0v14H55v2h16V1h-2zm18 0v14H73v2h16V1h-2zm18 0v6h-4v8h-6v2h8V9h4V1h-2zM91 7v2h4V7h-4zM33 9v6H19v2h16V9h-2z" overflow="visible"/><path d="M1 0v1H0v14h1v1h15V0H1zm17 0v16h16V8h-8V0h-8zm18 0v16h16V0H36zm18 0v16h16V0H54zm18 0v16h16V0H72zm18 0v8h4v8h8V8h4V0H90z" fill="#fff" overflow="visible"/><path d="M3 2v1H2v10h10l2-2v-1H7l-1 1-1-1 1-1V8l-.563-.563L6 7V6h8V2H3zm17 0v12h1l1-1 9-1 1-1v-1h-7l-1 1-1-1 1-1V8l-.594-.5L24 7V2h-4zm18 0v4h4v4h-4v4h1l2-2h8l1-1v-1h-3l-1 1-1-1 1-1V8l-.53-.47L46 7V6h4V2H38zm18 0v12h1l1-1h9l1-1v-1h-7l-1 1-1-1v-1l1-1 .5-.53.5.53h1l.594-.594L63 9h1l.563-.594L65 9h1l.53-.53L67 9h1V7h-8V5h8V2H56zm18 0v12h1l2-2v-2l1-1V8h1v2h1l.563.5L80 11v1h1l.5.47-.5.53v1h1l3-3v-1l1-1V8l-.53-.47L86 7V2h-4v6h-1V6h-1V4h-1V2h-5zm18 0v4h4v8h1l2-2v-2l1-1V8l-.53-.563L100 7V6h4V2H92z" fill="#333" overflow="visible"/><path d="M3 7v1h1V7H3zm1 1v1H3v5h11v-3H7v-1H6V9H5V8H4zm1 0h1V7H5v1zm16-1v1h1V7h-1zm1 1v1h-1v5h11v-3h-7v-1h-1V9h-1V8h-1zm1 0h1V7h-1v1zm20-1v1h1V7h-1zm1 1v1h-1v2h-4v3h11v-3h-3v-1h-1V9h-1V8h-1zm1 0h1V7h-1v1zm12-1v1h1V7h-1zm1 1v1h-1v5h11v-2h-7v-1h-1V9h-1V8h-1zm1 0h1V7h-1v1zm1 0v1h1V8h-1zm15-1v1h1V7h-1zm1 1v1h-1v5h3V9h-1V8h-1zm1 0h1V7h-1v1zm2-1v1h1V7h-1zm1 1v3h1v2h1v1h4V9h-1V8h-1v1h-3V8h-1zm4 0V7h-1v1h1zm1 0h1V7h-1v1zm12-1v1h1V7h-1zm1 1v1h-1v5h3V9h-1V8h-1zm1 0h1V7h-1v1zM62 8v1h1V8h-1zm2 0v1h1V8h-1zm2 0v1h1V8h-1z" fill="#cf0" overflow="visible"/></g></svg>