<svg xmlns="http://www.w3.org/2000/svg" width="192" height="18"><g color="#000"><path d="M34 1l-1 1v13H20l-1 1v1h16V1h-1zm18 0l-1 1v9l-4 4h-5l-1 1v1h8v-1h1v-1h1v-1h1v-1h1V1h-1zm18 0l-1 1v13H56l-1 1v1h16V1h-1zm10 0l-1 1v7h1l1-1V1h-1zm26 0l-1 1v13H92l-1 1v1h16V1h-1zm36 0l-1 1v13h-13l-1 1v1h16V1h-1zm36 0l-1 1v13h-13l-1 1v1h16V1h-1zM16 2l-1 1v11h-1v1H2l-1 1v1h15v-1h1V2h-1zm108 0l-1 1v8h-8v4h-5l-1 1v1h8v-4h8V2h-1zm36 0l-1 1v12h-13l-1 1v1h16V2h-1zm31 1l-1 1v9l-2 2h-3l-1 1v1h6v-1h1v-1h1V3h-1zM88 9l-1 1v5H74l-1 1v1h16V9h-1z" overflow="visible"/><path d="M0 0v16h15v-1h1V1h-1V0H0zm18 0v16h16V0H18zm18 0v12h1v1h1v1h1v1h1v1h8v-1h1v-1h1v-1h1v-1h1V0H36zm18 0v16h16V0H54zm18 0v16h16V8h-8V0h-8zm18 0v16h16V0H90zm18 0v16h8v-4h8V1h-1V0h-15zm18 0v16h16V0h-16zm18 0v16h16V1h-1V0h-15zm18 0v16h16V0h-16zm21 2v14h6v-1h1v-1h1V2h-8z" fill="#fff" overflow="visible"/><path d="M2 2v12h1l1-1v-3h1l1-1V8l-.53-.47L6 7V6h4v4H7l-1 1 1 1h5v-2h1l1-1V8l-.563-.438L14 7V3h-1V2H2zm18 0v12h1l1-1v-1h1v-2l1-1 .594-.5L25 9h1l.53-.53L27 9h1l.47-.53L29 9h1l.563-.594L31 9h1V7h-8V5h8V2H20zm18 0v9h1l1-1h1l1-1V8l-.47-.594L42 7V2h-4zm8 0v7h-1v1h-1l-1 1v1h4l3-3V8l-.563-.438L50 7V2h-4zm10 0v12h1l1-1v-1h1v-2l1-1 .5-.5.5.5h1l.53-.5.47.5h1l.438-.656L65 9h1l.563-.594L67 9h1V7h-8V5h8V2H56zm18 0v12h1l1-1v-3h1l1-1V8l-.5-.5.5-.5V2h-4zm18 0v12h1l1-1v-3h1l1-1V8l-.563-.47L96 7V6h4v4h-3l-1 1 1 1h6v-2l1-1V8l-.5-.47.5-.53V2H92zm18 0v12h1l.625-.47.063-3.874 2.624-.22V8.252L114 8l-.594-.625L114 7V6h4v2h-3l-.28.53-.032.94 6.875.03L122 9V8l-.594-.47L122 7V3h-1V2h-11zm18 0v12h1l1-1v-1h1v-2l1-1 .5-.5.5.5h1l.53-.5.47.5h1l.438-.656L137 9h1l.563-.594L139 9h1V7h-8V5h8V2h-12zm18 0v12h1l1-1-.406-3.5 2.687-.063.095-.937L150 8l-.563-.563L150 7V6h4v2h-3l-.313.47V9.56l4.875-.03L156 9V8h1l1-1V3h-1V2h-11zm18 0v7h2l.53-.53.47.53h1l.625-.53L169 9h1l.594-.594L171 9h1l.344.344 3.344.03L176 9V7h-8V5h8V2h-12zm21 2v4h1l.438-.625L187 8h1l1-1V4h-4zm-12.688 5.688L172 10v1h-8v3h1l1-1h8v-3l-.438-.28-1.25-.033zM79 10l-1 1v1h7l1-1v-1h-7zm106 0v4h1l.563-.25.093-2.156 1.907-.03.437-.564v-1h-4zM25 11l-1 1 1 1h6l1-1v-1h-7zm36 0l-1 1 1 1h6l1-1v-1h-7zm72 0l-1 1 1 1h6l1-1v-1h-7zm22 0l-1 1v2h1l1-1v-2h-1z" fill="#888" overflow="visible"/><path d="M3 7v1h1V7H3zm1 1v1H3v5h10v-1h1V9h-1V8h-1v1h-1v2H7v-1H6V9H5V8H4zm1 0h1V7H5v1zm7 0V7h-1v1h1zm1 0h1V7h-1v1zm8-1v1h1V7h-1zm1 1v1h-1v5h11v-2h-7v-1h-1V9h-1V8h-1zm1 0h1V7h-1v1zm1 0v1h1V8h-1zm15-1v1h1V7h-1zm1 1v1h-1v3h1v1h1v1h6v-1h1v-1h1v-1h1V9h-1V8h-1v1h-1v1h-1v1h-2v-1h-1V9h-2V8h-1zm1 0h1V7h-1v1zm7 0V7h-1v1h1zm1 0h1V7h-1v1zm8-1v1h1V7h-1zm1 1v1h-1v5h11v-2h-7v-1h-1V9h-1V8h-1zm1 0h1V7h-1v1zm1 0v1h1V8h-1zm15-1v1h1V7h-1zm1 1v1h-1v5h11v-3h-7v-1h-1V9h-1V8h-1zm1 0h1V7h-1v1zm16-1v1h1V7h-1zm1 1v1h-1v5h11V9h-1V8h-1v1h-1v2h-4v-1h-1V9h-1V8h-1zm1 0h1V7h-1v1zm7 0V7h-1v1h1zm1 0h1V7h-1v1zm8-1v1h1V7h-1zm1 1v1h-1v5h3v-4h8V9h-1V8h-1v1h-5V8h-1v1h-1V8h-1zm1 0h1V7h-1v1zm7 0V7h-1v1h1zm1 0h1V7h-1v1zm8-1v1h1V7h-1zm1 1v1h-1v5h11v-2h-7v-1h-1V9h-1V8h-1zm1 0h1V7h-1v1zm1 0v1h1V8h-1zm15-1v1h1V7h-1zm1 1v1h-1v5h3v-4h3v1h1v1h1v2h3v-4h-1V9h-6V8h-1v1h-1V8h-1zm1 0h1V7h-1v1zm6-1v1h1V7h-1zm2 0v1h1V7h-1zm8 0v1h1V7h-1zm1 1v1h1V8h-1zm1 0h1V7h-1v1zm1 0v1h1V8h-1zm18-1v1h1V7h-1zm2 0v1h1V7h-1zM26 8v1h1V8h-1zm2 0v1h1V8h-1zm2 0v1h1V8h-1zm32 0v1h1V8h-1zm2 0v1h1V8h-1zm2 0v1h1V8h-1zm68 0v1h1V8h-1zm2 0v1h1V8h-1zm2 0v1h1V8h-1zm32 0v1h1V8h-1zm2 0v2h1v2h-8v2h11V9h-1V8h-1v1h-1V8h-1zm14 3v3h1v-1h1v-1h1v-1h-3z" fill="#31d6ff" overflow="visible"/></g></svg>