<svg xmlns="http://www.w3.org/2000/svg" width="264" height="18" viewBox="0 0 264 18"><g color="#000"><path d="M14 1v1h-1v1h-1v1h-1v2h2v1h-1v1h-1v1h-1v1H9v1H8v1H7v1H6v1H5v1H4v3h1v-1h1v-1h1v-1h1v-1h1v-1h1v-1h1v-1h1v-1h1V9h1V8h1V7h1V6h-2V4h1V3h1V2h1V1h-3zm9 0v12h2V5h12V1H23zm28 0v2H41v4h2V5h8v4H39v8h4v-6h8v6h4V1h-4zm18 0v2H57v14h4V5h2v12h4V5h2v12h4V1h-4zm8 0v12h-2v4h16v-4H79v-2h12V7H79V5h12V1H77zm33 0v14H96v2h16V1h-2zm18 0v14h-14v2h16V1h-2zm10 0v8h2V1h-2zm24 0v6h-4v8h-6v2h8V9h4V1h-2zm25 0v14h-14v2h16V1h-2zm18 0v14h-14v2h16V1h-2zm18 0v14h-14v2h16V1h-2zm18 0v14h-14v2h16V1h-2zm9 0v1h-1v1h-1v2h1v1h12v9h-12v2h14v-1h1V7h-1V6h1V3h-3V2h-1V1h-10zM35 7v8H21v2h16V7h-2zm113 0v2h4V7h-4zM1 9v2h6V9H1zm26 0v2h6V9h-6zm117 0v6h-12v2h14V9h-2zm109 0v1h4V9h-4z" overflow="visible"/><path d="M4 0v2H3v2H2v2H1v2H0v2h7v1H6v1H5v2H4v2h1v-1h1v-1h1v-1h1v-1h1v-1h1v-1h1V9h1V8h1V7h1V6h1V5h-3V4h1V3h1V2h1V1h1V0H4zm0 16H3v1h1v-1zM20 0v16h16V6H26v4h6v2h-8V4h12V0H20zm18 0v16h4v-6h8v6h4V0H38zm18 0v16h4V4h2v12h4V4h2v12h4V0H56zm18 0v16h16v-4H78v-2h12V6H78V4h12V0H74zm29 0v8h-8v8h16V0h-8zm10 0v16h16V0h-16zm18 0v16h14V8h-6V0h-8zm16 0v8h4v8h8V8h4V0h-16zm33 0v8h-8v8h16V0h-8zm10 0v16h16V0h-16zm18 0v16h16V0h-16zm18 0v16h16V0h-16zm24 0v1h-2v1h-1v3h1v1h-1v9h1v1h14v-1h1V6h-1V5h1V2h-1V1h-2V0h-10zm0 2h10v1h1v2h-12V3h1V2zM42 4h8v2h-8V4zm211 5h4v1h-4V9z" fill="#fff" overflow="visible"/><path d="M5 2v2H4v2h1v1h1V6h1v1h1V6h1V5h1V4h1V3h1V2zm3 5v1h1V7zM7 7H6v1h1zM5 7H4v1h1zM4 7V6H3v1zm6 0v1h1V7z" fill="#2f7f6f" overflow="visible"/><path d="M4 6v1h1V6H4zm1 1v1h1V7H5zm1 0h1V6H6v1zm1 0v1h1V7H7zm1 0h1V6H8v1zm1 0v1H8v2h1V9h1V7H9zM4 7H3v1h1V7z" fill="#cf0" overflow="visible"/><path d="M105 2v8h-8v4h1v-3h8V9h1V8h-1V7h1v1h1V7h1V2h-4zm3 6v1h1V8h-1zm7-6v12h1V9h1V8h-1V7h1v1h1V7h1V6h4v4h-3v1h4V9h1V8h-1V7h1v1h1V7h1V2h-12zm11 6v1h1V8h-1zm-8 0v1h1V8h-1zm15-6v12h1V9h1V8h-1V7h1v1h1V7h1V2h-4zm3 6v1h1V8h-1zm13-6v4h4v8h1V9h1V8h-1V7h1v1h1V7h1V6h4V2h-12zm7 6v1h1V8h-1zm94-3v1h10V5h-10zm10 1v7h1V6h-1zm0 7h-10v1h10v-1zm-10 0V6h-1v7h1zm-112-3v1h5v-1h-5z" fill="#2f7f6f" overflow="visible"/><path d="M250 3v1h1V3h-1zm2 0v1h2V3h-2zM106 7v1h1V7h-1zm1 1v1h-1v2h-8v3h11V9h-1V8h-1zm1 0h1V7h-1v1zm8-1v1h1V7h-1zm1 1v1h-1v5h11V9h-1V8h-1v1h-1v2h-4v-1h-1V9h-1V8h-1zm1 0h1V7h-1v1zm7 0V7h-1v1h1zm1 0h1V7h-1v1zm8-1v1h1V7h-1zm1 1v1h-1v5h9v-3h-5v-1h-1V9h-1V8h-1zm1 0h1V7h-1v1zm18-1v1h1V7h-1zm1 1v1h-1v5h3V9h-1V8h-1zm1 0h1V7h-1v1z" fill="#cf0" overflow="visible"/><path d="M182 2v8h-8v4h1v-3h8V9h1V8h-1V7h1v1h1V7h1V2zm3 6v1h1V8zm7-6v12h1V9h1V8h-1V7h1v1h1V7h1V6h4v2h-3v1h5V8h-1V7h1v1h1V7h1V2zm11 6v1h1V8zm-8 0v1h1V8zm15-6v12h1V9h1V8h-1V7h1v1h1V6h2v8h1V8h1V6h2v8h1V8h1V7h1V2zm11 6v1h1V8zm7-6v7h2V8h-1V7h1v1h1V7h1V5h8V2zm4 5v1h1v1h1V8h1v1h1V8h1v1h1V8h1v1h1V7zm0 1h-1v1h1zm19-1v1h-1v1h1v2h-1v2h10V7zm1 1h6v3h-6zm-16 2v1h-8v3h1v-2h8v-2zm-36 1v3h1v-3z" fill="#ff3fac" overflow="visible"/><path d="M254 3v1h1V3zm2 0v1h1V3zm-6 3v1h1V6zm9 0v1h1V6zm-76 1v1h1V7zm1 1v1h-1v2h-8v3h11V9h-1V8zm1 0h1V7h-1zm8-1v1h1V7zm1 1v1h-1v5h3v-4h4v1h1v3h3V9h-1V8h-1v1h-5V8h-1v1h-1V8zm1 0h1V7h-1zm7 0V7h-1v1zm1 0h1V7h-1zm8-1v1h1V7zm1 1v1h-1v5h2V8zm9-1v1h1V7zm0 1h-1v6h2V9h-1zm8-1v1h1V7zm1 1v1h1V8zm1 0h1V7h-1zm1 0v1h1V8zm-16 0v6h1V8zm18 0v1h1V8zm2 0v2h1v2h-8v2h11V9h-1V8h-1v1h-1V8zm19 1v1h1V9z" fill="#31d6ff" overflow="visible"/></g></svg>