<svg xmlns="http://www.w3.org/2000/svg" width="17" height="18" viewBox="0 0 17 18"><g color="#000"><path d="M3 1v1H2v1H1v2h1v1h12v9H2v2h14v-1h1V7h-1V6h1V3h-3V2h-1V1zm3 8v1h4V9z" overflow="visible"/><path d="M3 0v1H1v1H0v3h1v1H0v9h1v1h14v-1h1V6h-1V5h1V2h-1V1h-2V0zm0 2h10v1h1v2H2V3h1zm3 7h4v1H6z" fill="#fff" overflow="visible"/><path d="M4 7v1H3v1h1v2H3v2h10V7zm1 1h6v3H5z" fill="#ff3fac" overflow="visible"/><path d="M7 3v1h1V3zm2 0v1h1V3zM3 6v1h1V6zm9 0v1h1V6zM8 9v1h1V9z" fill="#31d6ff" overflow="visible"/><path d="M3 3v1h1V3H3zm2 0v1h2V3H5z" fill="#cf0" overflow="visible"/><path d="M3 5v1h10V5H3zm10 1v7h1V6h-1zm0 7H3v1h10v-1zM3 13V6H2v7h1z" fill="#2f7f6f" overflow="visible"/></g></svg>