<svg xmlns="http://www.w3.org/2000/svg" width="92" height="18" viewBox="0 0 92 18"><g color="#000"><path d="M15 1v14H1v2h16V1zm18 0v14H19v2h16V1zm18 0v14H37v2h16V1zm18 0v14H55v2h16V1zm9 0v1h-1v1h-1v2h1v1h12v9H77v2h14v-1h1V7h-1V6h1V3h-3V2h-1V1zm3 8v1h4V9z" overflow="visible"/><path d="M8 0v8H0v8h16V0zm10 0v16h16V0zm18 0v16h16V0zm18 0v16h16V0zm24 0v1h-2v1h-1v3h1v1h-1v9h1v1h14v-1h1V6h-1V5h1V2h-1V1h-2V0zm0 2h10v1h1v2H77V3h1zm3 7h4v1h-4z" fill="#fff" overflow="visible"/><path d="M10 2v8H2v4h1v-3h8V9h1V8h-1V7h1v1h1V7h1V2zm3 6v1h1V8zm7-6v12h1V9h1V8h-1V7h1v1h1V7h1V6h4v2h-3v1h5V8h-1V7h1v1h1V7h1V2zm11 6v1h1V8zm-8 0v1h1V8zm15-6v12h1V9h1V8h-1V7h1v1h1V6h2v8h1V8h1V6h2v8h1V8h1V7h1V2zm11 6v1h1V8zm7-6v7h2V8h-1V7h1v1h1V7h1V5h8V2zm4 5v1h1v1h1V8h1v1h1V8h1v1h1V8h1v1h1V7zm0 1h-1v1h1zm19-1v1h-1v1h1v2h-1v2h10V7zm1 1h6v3h-6zm-16 2v1h-8v3h1v-2h8v-2zm-36 1v3h1v-3z" fill="#ff3fac" overflow="visible"/><path d="M82 3v1h1V3zm2 0v1h1V3zm-6 3v1h1V6zm9 0v1h1V6zM11 7v1h1V7zm1 1v1h-1v2H3v3h11V9h-1V8zm1 0h1V7h-1zm8-1v1h1V7zm1 1v1h-1v5h3v-4h4v1h1v3h3V9h-1V8h-1v1h-5V8h-1v1h-1V8zm1 0h1V7h-1zm7 0V7h-1v1zm1 0h1V7h-1zm8-1v1h1V7zm1 1v1h-1v5h2V8zm9-1v1h1V7zm0 1h-1v6h2V9h-1zm8-1v1h1V7zm1 1v1h1V8zm1 0h1V7h-1zm1 0v1h1V8zM44 8v6h1V8zm18 0v1h1V8zm2 0v2h1v2h-8v2h11V9h-1V8h-1v1h-1V8zm19 1v1h1V9z" fill="#31d6ff" overflow="visible"/><path d="M78 3v1h1V3h-1zm2 0v1h2V3h-2z" fill="#cf0" overflow="visible"/><path d="M78 5v1h10V5H78zm10 1v7h1V6h-1zm0 7H78v1h10v-1zm-10 0V6h-1v7h1z" fill="#2f7f6f" overflow="visible"/></g></svg>