<svg xmlns="http://www.w3.org/2000/svg" width="112" height="18" viewBox="0 0 112 18"><g color="#000"><path d="M14 1v1h-1v1h-1v1h-1v2h2v1h-1v1h-1v1h-1v1H9v1H8v1H7v1H6v1H5v1H4v3h1v-1h1v-1h1v-1h1v-1h1v-1h1v-1h1v-1h1v-1h1V9h1V8h1V7h1V6h-2V4h1V3h1V2h1V1h-3zm21 0v14H21v2h16V1h-2zm18 0v14H39v2h16V1h-2zm18 0v14H57v2h16V1h-2zm18 0v14H75v2h16V1h-2zm9 0v1h-1v1h-1v2h1v1h12v9H97v2h14v-1h1V7h-1V6h1V3h-3V2h-1V1H98zM1 9v2h6V9H1zm100 0v1h4V9h-4z" overflow="visible"/><path d="M4 0v2H3v2H2v2H1v2H0v2h7v1H6v1H5v2H4v2h1v-1h1v-1h1v-1h1v-1h1v-1h1v-1h1V9h1V8h1V7h1V6h1V5h-3V4h1V3h1V2h1V1h1V0H4zm0 16H3v1h1v-1zM28 0v8h-8v8h16V0h-8zm10 0v16h16V0H38zm18 0v16h16V0H56zm18 0v16h16V0H74zm24 0v1h-2v1h-1v3h1v1h-1v9h1v1h14v-1h1V6h-1V5h1V2h-1V1h-2V0H98zm0 2h10v1h1v2H97V3h1V2zm3 7h4v1h-4V9z" fill="#fff" overflow="visible"/><path d="M5 2v2H4v2h1v1h1V6h1v1h1V6h1V5h1V4h1V3h1V2H5zm3 5v1h1V7H8zM7 7H6v1h1V7zM5 7H4v1h1V7zM4 7V6H3v1h1zm94-2v1h10V5H98zm10 1v7h1V6h-1zm0 7H98v1h10v-1zm-10 0V6h-1v7h1zM10 7v1h1V7h-1z" fill="#2f7f6f" overflow="visible"/><path d="M98 3v1h1V3h-1zm2 0v1h2V3h-2zM4 6v1h1V6H4zm1 1v1h1V7H5zm1 0h1V6H6v1zm1 0v1h1V7H7zm1 0h1V6H8v1zm1 0v1H8v2h1V9h1V7H9zM4 7H3v1h1V7z" fill="#cf0" overflow="visible"/><path d="M30 2v8h-8v4h1v-3h8V9h1V8h-1V7h1v1h1V7h1V2zm3 6v1h1V8zm7-6v12h1V9h1V8h-1V7h1v1h1V7h1V6h4v2h-3v1h5V8h-1V7h1v1h1V7h1V2zm11 6v1h1V8zm-8 0v1h1V8zm15-6v12h1V9h1V8h-1V7h1v1h1V6h2v8h1V8h1V6h2v8h1V8h1V7h1V2zm11 6v1h1V8zm7-6v7h2V8h-1V7h1v1h1V7h1V5h8V2zm4 5v1h1v1h1V8h1v1h1V8h1v1h1V8h1v1h1V7zm0 1h-1v1h1zm19-1v1h-1v1h1v2h-1v2h10V7zm1 1h6v3h-6zm-16 2v1h-8v3h1v-2h8v-2zm-36 1v3h1v-3z" fill="#ff3fac" overflow="visible"/><path d="M102 3v1h1V3zm2 0v1h1V3zm-6 3v1h1V6zm9 0v1h1V6zM31 7v1h1V7zm1 1v1h-1v2h-8v3h11V9h-1V8zm1 0h1V7h-1zm8-1v1h1V7zm1 1v1h-1v5h3v-4h4v1h1v3h3V9h-1V8h-1v1h-5V8h-1v1h-1V8zm1 0h1V7h-1zm7 0V7h-1v1zm1 0h1V7h-1zm8-1v1h1V7zm1 1v1h-1v5h2V8zm9-1v1h1V7zm0 1h-1v6h2V9h-1zm8-1v1h1V7zm1 1v1h1V8zm1 0h1V7h-1zm1 0v1h1V8zM64 8v6h1V8zm18 0v1h1V8zm2 0v2h1v2h-8v2h11V9h-1V8h-1v1h-1V8zm19 1v1h1V9z" fill="#31d6ff" overflow="visible"/></g></svg>